G04*
G04 #@! TF.GenerationSoftware,Altium Limited,Altium Designer,22.1.2 (22)*
G04*
G04 Layer_Physical_Order=2*
G04 Layer_Color=16711680*
%FSLAX44Y44*%
%MOMM*%
G71*
G04*
G04 #@! TF.SameCoordinates,13D72DB6-CE64-42D8-9DE0-DE94B983F977*
G04*
G04*
G04 #@! TF.FilePolarity,Positive*
G04*
G01*
G75*
%ADD10C,0.2500*%
%ADD12C,0.2000*%
%ADD13C,0.3000*%
%ADD33R,0.7000X0.9000*%
%ADD34R,1.4500X0.6000*%
%ADD35R,0.9000X0.7000*%
%ADD46C,0.4000*%
%ADD47C,0.6000*%
%ADD48O,1.1000X2.2000*%
%ADD49O,1.0080X2.0160*%
%ADD50C,0.6000*%
%ADD51C,0.8000*%
%ADD52C,0.6600*%
%ADD53R,1.0000X0.8000*%
%ADD54R,0.3000X0.8000*%
%ADD55R,1.0000X1.5000*%
%ADD56R,2.5000X2.0000*%
%ADD57R,0.6000X1.5240*%
G36*
X0Y0D02*
Y-13076D01*
X-1222Y-13421D01*
X-2376Y-11539D01*
X-5698Y-7649D01*
X-9588Y-4327D01*
X-13950Y-1654D01*
X-14935Y-1246D01*
X-14687Y0D01*
X0D01*
D02*
G37*
G36*
X-177888Y-37035D02*
X-178355Y-37346D01*
X-178730Y-37908D01*
X-180000Y-37522D01*
Y-35765D01*
X-178274D01*
X-177888Y-37035D01*
D02*
G37*
G36*
X-178355Y-44556D02*
X-176701Y-45661D01*
X-175586Y-45883D01*
X-170578Y-50890D01*
Y-56831D01*
X-170850D01*
Y-72310D01*
X-171077Y-73452D01*
X-171045Y-73612D01*
X-172216Y-74237D01*
X-173481Y-72972D01*
Y-68276D01*
X-173550Y-67931D01*
Y-56831D01*
X-180000D01*
Y-44380D01*
X-178730Y-43994D01*
X-178355Y-44556D01*
D02*
G37*
G36*
X-152911Y-55658D02*
X-153397Y-56831D01*
X-158150D01*
Y-74737D01*
X-159420Y-75263D01*
X-160850Y-73833D01*
Y-56831D01*
X-162422D01*
Y-49201D01*
X-162422Y-49201D01*
X-162732Y-47640D01*
X-162747Y-47618D01*
X-161761Y-46808D01*
X-152911Y-55658D01*
D02*
G37*
G36*
X-24455Y-3581D02*
X-20265Y-4587D01*
X-16285Y-6236D01*
X-12611Y-8487D01*
X-9334Y-11286D01*
X-6536Y-14562D01*
X-4285Y-18235D01*
X-2636Y-22216D01*
X-1630Y-26406D01*
X-1390Y-29458D01*
X-1299Y-30701D01*
X-1299Y-30701D01*
X-1299Y-31950D01*
Y-135951D01*
X-3960D01*
Y-133520D01*
X-11500D01*
X-19040D01*
Y-135951D01*
X-40500D01*
Y-122750D01*
X-48890D01*
X-49376Y-121577D01*
X-27605Y-99806D01*
X-25951Y-100911D01*
X-24000Y-101299D01*
X-22049Y-100911D01*
X-20395Y-99806D01*
X-19290Y-98152D01*
X-18902Y-96201D01*
X-19290Y-94250D01*
X-20395Y-92596D01*
X-22049Y-91491D01*
X-24000Y-91103D01*
X-25951Y-91491D01*
X-27605Y-92596D01*
X-28023Y-93222D01*
X-28405D01*
X-28405Y-93222D01*
X-29002Y-93341D01*
X-30440Y-92621D01*
X-30446Y-92595D01*
X-31551Y-90941D01*
X-33205Y-89836D01*
X-35155Y-89447D01*
X-37106Y-89836D01*
X-38760Y-90941D01*
X-39865Y-92595D01*
X-40251Y-94532D01*
X-51111Y-105392D01*
X-105689D01*
X-106287Y-104272D01*
X-106040Y-103902D01*
X-105652Y-101951D01*
X-106040Y-100000D01*
X-107145Y-98346D01*
X-108799Y-97241D01*
X-110750Y-96853D01*
X-111276Y-96958D01*
X-112174Y-96060D01*
X-112152Y-95951D01*
X-112540Y-94000D01*
X-113645Y-92346D01*
X-115299Y-91241D01*
X-117250Y-90853D01*
X-119201Y-91241D01*
X-120855Y-92346D01*
X-120879Y-92382D01*
X-127772D01*
X-148150Y-72004D01*
Y-62078D01*
X-146977Y-61592D01*
X-125533Y-83036D01*
X-125460Y-83402D01*
X-124355Y-85056D01*
X-122701Y-86161D01*
X-120750Y-86549D01*
X-118799Y-86161D01*
X-117145Y-85056D01*
X-116040Y-83402D01*
X-115652Y-81451D01*
X-116040Y-79500D01*
X-117066Y-77964D01*
X-115520Y-76931D01*
X-114415Y-75277D01*
X-114027Y-73326D01*
X-114415Y-71375D01*
X-115520Y-69721D01*
X-117174Y-68616D01*
X-119125Y-68228D01*
X-119168Y-68237D01*
X-155370Y-32034D01*
X-154884Y-30861D01*
X-154420D01*
Y-21971D01*
X-158690D01*
Y-27055D01*
X-159863Y-27541D01*
X-160850Y-26554D01*
Y-11081D01*
X-170850D01*
Y-28237D01*
X-171326Y-28627D01*
X-173550D01*
Y-11081D01*
X-180000D01*
Y-3250D01*
X-28750Y-3250D01*
X-28726Y-3245D01*
X-24455Y-3581D01*
D02*
G37*
G36*
X-163073Y-93474D02*
X-163170Y-94651D01*
X-163402Y-94941D01*
X-180000D01*
Y-78343D01*
X-178730Y-77817D01*
X-163073Y-93474D01*
D02*
G37*
G36*
X-154173Y-76074D02*
X-132635Y-97612D01*
X-133161Y-98882D01*
X-147571D01*
X-155698Y-90755D01*
X-155215Y-89442D01*
X-153799Y-89160D01*
X-152145Y-88055D01*
X-151040Y-86402D01*
X-150652Y-84451D01*
X-151040Y-82500D01*
X-152145Y-80846D01*
X-153799Y-79741D01*
X-155226Y-79457D01*
X-157342Y-77341D01*
X-156816Y-76071D01*
X-154176D01*
X-154173Y-76074D01*
D02*
G37*
G36*
X-121770Y-107289D02*
X-121855Y-107346D01*
X-122960Y-109000D01*
X-123348Y-110951D01*
X-122960Y-112902D01*
X-121855Y-114556D01*
X-120201Y-115661D01*
X-118250Y-116049D01*
X-116299Y-115661D01*
X-114645Y-114556D01*
X-113540Y-112902D01*
X-113333Y-111860D01*
X-112983Y-111510D01*
X-49844D01*
X-49844Y-111510D01*
X-49735Y-111488D01*
X-49109Y-112659D01*
X-55892Y-119441D01*
X-121530D01*
X-121895Y-118895D01*
X-123549Y-117790D01*
X-125500Y-117402D01*
X-127451Y-117790D01*
X-129105Y-118895D01*
X-130210Y-120549D01*
X-130598Y-122500D01*
X-130210Y-124451D01*
X-129105Y-126105D01*
X-127451Y-127210D01*
X-125500Y-127598D01*
X-123549Y-127210D01*
X-121895Y-126105D01*
X-121530Y-125559D01*
X-54625D01*
X-54625Y-125559D01*
X-54500Y-125661D01*
Y-135691D01*
X-130726D01*
X-145244Y-121173D01*
X-144757Y-120000D01*
X-140265D01*
X-139951Y-120210D01*
X-138000Y-120598D01*
X-136049Y-120210D01*
X-134395Y-119105D01*
X-133290Y-117451D01*
X-132902Y-115500D01*
X-133290Y-113549D01*
X-134395Y-111895D01*
X-136049Y-110790D01*
X-138000Y-110402D01*
X-138518Y-110505D01*
X-139500Y-109699D01*
Y-107000D01*
X-138801Y-106019D01*
X-122155D01*
X-121770Y-107289D01*
D02*
G37*
G36*
X-160296Y-105287D02*
X-160783Y-106460D01*
X-166040D01*
Y-112230D01*
X-160000D01*
Y-113500D01*
X-158730D01*
Y-120540D01*
X-154528D01*
X-153525Y-121544D01*
X-154118Y-122746D01*
X-154230Y-122732D01*
Y-133980D01*
X-147855D01*
Y-130210D01*
X-148037Y-128828D01*
X-146834Y-128235D01*
X-136750Y-138318D01*
Y-158750D01*
X-163428D01*
X-163657Y-158407D01*
X-168657Y-153407D01*
X-169732Y-152689D01*
X-171000Y-152436D01*
X-179127D01*
X-180000Y-151564D01*
Y-149250D01*
X-175290D01*
Y-149790D01*
X-169020D01*
Y-143250D01*
X-166480D01*
Y-149790D01*
X-160210D01*
Y-147683D01*
X-158940Y-147070D01*
X-157479Y-147675D01*
X-156770Y-147768D01*
Y-136520D01*
X-163145D01*
Y-136710D01*
X-164710D01*
Y-132520D01*
X-168750D01*
Y-131250D01*
X-170020D01*
Y-124710D01*
X-172790D01*
Y-125250D01*
X-180000D01*
Y-120290D01*
X-176770D01*
Y-113250D01*
Y-106210D01*
X-180000D01*
Y-101059D01*
X-164524D01*
X-160296Y-105287D01*
D02*
G37*
%LPC*%
G36*
X-147610Y-10541D02*
X-151880D01*
Y-19431D01*
X-147610D01*
Y-10541D01*
D02*
G37*
G36*
X-154420D02*
X-158690D01*
Y-19431D01*
X-154420D01*
Y-10541D01*
D02*
G37*
G36*
X-147610Y-21971D02*
X-151880D01*
Y-30861D01*
X-147610D01*
Y-21971D01*
D02*
G37*
G36*
X-44500Y-21603D02*
X-118750D01*
X-120701Y-21991D01*
X-122355Y-23096D01*
X-123460Y-24750D01*
X-123848Y-26701D01*
X-123460Y-28652D01*
X-122355Y-30306D01*
X-120701Y-31411D01*
X-118750Y-31799D01*
X-46243D01*
X-45701Y-32161D01*
X-43750Y-32549D01*
X-41799Y-32161D01*
X-40145Y-31056D01*
X-39040Y-29402D01*
X-38652Y-27451D01*
X-39040Y-25500D01*
X-40145Y-23846D01*
X-40895Y-23096D01*
X-42549Y-21991D01*
X-44500Y-21603D01*
D02*
G37*
G36*
X-9000Y-54603D02*
X-10951Y-54991D01*
X-12605Y-56096D01*
X-13381Y-57257D01*
X-18626D01*
X-19992Y-57529D01*
X-21150Y-58303D01*
X-39327Y-76480D01*
X-40500Y-75994D01*
Y-62750D01*
X-54500D01*
Y-81750D01*
X-51955D01*
X-51719Y-82902D01*
X-51744Y-83020D01*
X-53355Y-84096D01*
X-54460Y-85750D01*
X-54848Y-87701D01*
X-54460Y-89652D01*
X-53355Y-91306D01*
X-51701Y-92411D01*
X-49750Y-92799D01*
X-47799Y-92411D01*
X-46145Y-91306D01*
X-45738Y-90696D01*
X-44927D01*
X-43562Y-90424D01*
X-42404Y-89650D01*
X-20213Y-67460D01*
X-19040Y-67946D01*
Y-70980D01*
X-11500D01*
X-3960D01*
Y-62210D01*
X-3960Y-62210D01*
X-3960D01*
X-4148Y-60940D01*
X-3902Y-59701D01*
X-4290Y-57750D01*
X-5395Y-56096D01*
X-7049Y-54991D01*
X-9000Y-54603D01*
D02*
G37*
G36*
X-3960Y-73520D02*
X-10230D01*
Y-82290D01*
X-3960D01*
Y-73520D01*
D02*
G37*
G36*
X-12770D02*
X-19040D01*
Y-82290D01*
X-12770D01*
Y-73520D01*
D02*
G37*
G36*
X-3960Y-122210D02*
X-10230D01*
Y-130980D01*
X-3960D01*
Y-122210D01*
D02*
G37*
G36*
X-12770D02*
X-19040D01*
Y-130980D01*
X-12770D01*
Y-122210D01*
D02*
G37*
G36*
X-169460Y-106210D02*
X-174230D01*
Y-111980D01*
X-169460D01*
Y-106210D01*
D02*
G37*
G36*
Y-114520D02*
X-174230D01*
Y-120290D01*
X-169460D01*
Y-114520D01*
D02*
G37*
G36*
X-161270Y-114770D02*
X-166040D01*
Y-120540D01*
X-161270D01*
Y-114770D01*
D02*
G37*
G36*
X-164710Y-124710D02*
X-167480D01*
Y-129980D01*
X-164710D01*
Y-124710D01*
D02*
G37*
G36*
X-156770Y-122732D02*
X-157479Y-122825D01*
X-159323Y-123589D01*
X-160906Y-124804D01*
X-162121Y-126387D01*
X-162885Y-128231D01*
X-163145Y-130210D01*
Y-133980D01*
X-156770D01*
Y-122732D01*
D02*
G37*
G36*
X-147855Y-136520D02*
X-154230D01*
Y-147768D01*
X-153521Y-147675D01*
X-151677Y-146911D01*
X-150094Y-145696D01*
X-148879Y-144113D01*
X-148115Y-142269D01*
X-147855Y-140290D01*
Y-136520D01*
D02*
G37*
%LPD*%
D10*
X-180500Y-155750D02*
X-171000D01*
X-186250Y-150000D02*
Y-143250D01*
Y-150000D02*
X-180500Y-155750D01*
X-169000Y-170250D02*
X-166000Y-167250D01*
X-216485Y-158515D02*
X-204750Y-170250D01*
X-169000D01*
X-166000Y-167250D02*
Y-160750D01*
X-171000Y-155750D02*
X-166000Y-160750D01*
X-305951Y-15951D02*
X-294500D01*
X-287643Y-115804D02*
X-286696D01*
X-289594Y-114156D02*
X-289291D01*
X-287643Y-115804D01*
X-321250Y-82500D02*
X-289594Y-114156D01*
X-216250Y-68009D02*
Y-67144D01*
X-213900Y-64794D01*
Y-23301D01*
X-211250Y-152832D02*
Y-143250D01*
X-216168Y-157750D02*
X-211250Y-152832D01*
X-321250Y-82500D02*
Y-31250D01*
X-305951Y-15951D01*
X-310250Y-30250D02*
X-285000D01*
X-283000Y-28250D01*
X-214000Y-23201D02*
X-213900Y-23301D01*
D12*
X-145000Y-113500D02*
X-143000Y-115500D01*
X-138000D01*
X-152500Y-118243D02*
X-131993Y-138750D01*
X-51500D01*
X-195750Y-98000D02*
X-163257D01*
X-152500Y-108757D01*
Y-118243D02*
Y-108757D01*
X-195000Y-164000D02*
X-172500D01*
X-206250Y-152750D02*
X-195000Y-164000D01*
X-206250Y-152750D02*
Y-143250D01*
X-186250D02*
X-185750Y-142750D01*
X-192750Y-59701D02*
X-190187Y-62263D01*
X-196500Y-41701D02*
X-192750Y-45451D01*
Y-59701D02*
Y-45451D01*
X-145000Y-113500D02*
Y-112500D01*
X-175500Y-114250D02*
X-168750Y-121000D01*
X-175500Y-114250D02*
Y-113250D01*
X-168750Y-131250D02*
Y-121000D01*
X-198250Y-95500D02*
Y-95000D01*
X-217000Y-91500D02*
X-201750D01*
X-198250Y-95500D02*
X-195750Y-98000D01*
X-201750Y-91500D02*
X-198250Y-95000D01*
X-195750Y-83000D02*
X-193750D01*
X-215750Y-77701D02*
X-200549D01*
X-198250Y-80500D02*
X-195750Y-83000D01*
X-193750D02*
X-191250Y-85500D01*
X-200549Y-77701D02*
X-198250Y-80000D01*
Y-80500D02*
Y-80000D01*
X-175500Y-113250D02*
X-175101Y-112851D01*
X-193000Y-110750D02*
X-190500Y-113250D01*
X-188750Y-131250D02*
Y-115250D01*
X-217250Y-157750D02*
X-216168D01*
X-213250Y-136507D02*
X-211750Y-138007D01*
X-211750Y-142750D02*
Y-139078D01*
X-211750Y-139078D02*
Y-138007D01*
X-213250Y-136507D02*
Y-131750D01*
X-211750Y-139078D02*
X-211750Y-139078D01*
Y-142750D02*
X-211250Y-143250D01*
X-222250Y-71201D02*
Y-47750D01*
Y-71201D02*
X-215750Y-77701D01*
X-203750Y-133750D02*
X-203250Y-134250D01*
X-203750Y-133750D02*
Y-131250D01*
X-184250Y-136493D02*
Y-131750D01*
X-183750Y-131250D01*
X-185750Y-142750D02*
Y-137993D01*
X-184250Y-136493D01*
X-213750Y-131250D02*
X-213250Y-131750D01*
X-231750Y-76750D02*
X-217000Y-91500D01*
X-231750Y-76750D02*
Y-56750D01*
X-51500Y-138750D02*
X-47500Y-134750D01*
Y-132250D01*
X-250250Y-48500D02*
X-237250D01*
X-250500Y-48250D02*
X-250250Y-48500D01*
X-54625Y-122500D02*
X-28405Y-96281D01*
X-24080D01*
X-24000Y-96201D01*
X-49844Y-108451D02*
X-35938Y-94545D01*
X-125500Y-122500D02*
X-54625D01*
X-35938Y-94545D02*
X-35155D01*
X-203500Y-62201D02*
Y-36451D01*
X-203750Y-62451D02*
X-203500Y-62201D01*
X-114250Y-108451D02*
X-49844D01*
X-117250Y-111451D02*
X-114250Y-108451D01*
D13*
X-73519Y-75469D02*
Y-33951D01*
X-21000Y-133201D02*
X-15000Y-127201D01*
X-264800Y-66500D02*
X-259750D01*
X-262500Y-125451D02*
X-252750Y-115701D01*
X-235800D01*
X-262500Y-152949D02*
Y-125451D01*
X-270002Y-160451D02*
X-262500Y-152949D01*
X-160000Y-114500D02*
Y-113500D01*
X-226750Y-102708D02*
Y-100701D01*
X-223250Y-99701D02*
X-221000D01*
X-225750D02*
X-223250D01*
X-226750Y-100701D02*
X-225750Y-99701D01*
X-227000Y-102958D02*
X-226750Y-102708D01*
X-227000Y-113972D02*
Y-102958D01*
X-233729Y-120701D02*
X-227000Y-113972D01*
X-234590Y-120916D02*
X-234375Y-120701D01*
X-233729D01*
X-232000Y-111901D02*
Y-98451D01*
X-235800Y-115701D02*
X-232000Y-111901D01*
X-248416Y-120916D02*
X-234590D01*
X-153250Y-71951D02*
X-152270D01*
X-151650Y-73551D02*
X-129250Y-95951D01*
X-117250D01*
X-152270Y-71951D02*
X-151650Y-72571D01*
Y-73551D02*
Y-72571D01*
X-160549Y-90951D02*
X-160549D01*
X-149049Y-102451D02*
X-110750D01*
X-160549Y-90951D02*
X-149049Y-102451D01*
X-177050Y-74450D02*
X-160549Y-90951D01*
X-177050Y-74450D02*
Y-68276D01*
X-178500Y-66826D02*
X-177050Y-68276D01*
X-223425Y-192675D02*
Y-178825D01*
X-252500Y-149750D02*
X-223425Y-178825D01*
X-252500Y-125000D02*
X-248416Y-120916D01*
X-252500Y-149750D02*
Y-125000D01*
X-238729Y-141020D02*
X-231980D01*
X-242000Y-137750D02*
Y-135250D01*
X-231980Y-141020D02*
X-229750Y-143250D01*
X-242000Y-137750D02*
X-238729Y-141020D01*
X-229750Y-143250D02*
X-228750Y-142250D01*
Y-131250D01*
X-260476Y-90850D02*
X-245149D01*
X-244500Y-109201D02*
X-244250Y-109451D01*
X-307750Y-85750D02*
X-287549Y-105951D01*
X-260576Y-90951D02*
X-260476Y-90850D01*
X-286299Y-90951D02*
X-260576D01*
X-245149Y-90850D02*
X-244500Y-90201D01*
X-52625Y-94451D02*
X-45180D01*
X-61750Y-85326D02*
X-52625Y-94451D01*
X-61750Y-85326D02*
Y-75701D01*
X-44927Y-87127D02*
X-18626Y-60826D01*
X-9500D01*
X-49176Y-87127D02*
X-44927D01*
X-45180Y-94451D02*
X-38133Y-87404D01*
X-22047D01*
X-49750Y-87701D02*
X-49176Y-87127D01*
X-22047Y-87404D02*
X-15000Y-94451D01*
X-240250Y-90201D02*
X-232000Y-98451D01*
X-244250Y-72500D02*
X-226451Y-90299D01*
X-244250Y-72500D02*
Y-68951D01*
X-226451Y-98201D02*
Y-90299D01*
X-245250Y-67951D02*
X-244250Y-68951D01*
X-226451Y-98201D02*
X-226152Y-98500D01*
X-250520Y-33250D02*
Y-16000D01*
X-259750Y-66500D02*
Y-22770D01*
X-261250Y-68000D02*
X-259750Y-66500D01*
X-267520Y-15000D02*
X-259750Y-22770D01*
X-267520Y-15000D02*
Y-14000D01*
X-246270Y-6000D02*
X-239270Y-13000D01*
X-260520Y-6000D02*
X-246270D01*
X-239270Y-14000D02*
Y-13000D01*
X-267520D02*
X-260520Y-6000D01*
X-267520Y-14000D02*
Y-13000D01*
X-252520Y-14000D02*
X-250520Y-16000D01*
X-222250Y-32750D02*
Y-17020D01*
X-224270Y-15000D02*
X-222250Y-17020D01*
X-224270Y-15000D02*
Y-14000D01*
X-278250Y-17000D02*
X-268000Y-27250D01*
X-278730Y-17000D02*
X-278250D01*
X-268000Y-28250D02*
Y-27250D01*
X-280730Y-15000D02*
X-278730Y-17000D01*
X-280730Y-15000D02*
Y-14000D01*
X-287549Y-105951D02*
X-260750D01*
X-276500Y-84000D02*
Y-72250D01*
X-312500D02*
X-311250Y-73500D01*
X-303750D01*
X-276250Y-56500D02*
X-274250Y-58500D01*
X-272800D01*
X-270050Y-61250D01*
X-270050D02*
X-264800Y-66500D01*
X-303750Y-73500D02*
Y-56500D01*
Y-73500D02*
X-286299Y-90951D01*
X-290000Y-41500D02*
X-268038D01*
X-303750D02*
X-290000D01*
X-268000Y-28250D02*
X-267000Y-27250D01*
X-244500Y-90201D02*
X-240250D01*
X-260750Y-105951D02*
X-257500Y-109201D01*
X-244500D01*
X-196005Y-32196D02*
X-171326D01*
X-205125Y-23076D02*
X-196005Y-32196D01*
X-165500Y-26951D02*
X-119125Y-73326D01*
X-165500Y-26951D02*
Y-21076D01*
X-171326Y-32196D02*
X-122071Y-81451D01*
X-120750D01*
X-97750Y-39701D02*
Y-33951D01*
X-61750Y-39701D02*
Y-33951D01*
Y-51701D02*
Y-39701D01*
Y-63701D02*
Y-51701D01*
Y-75701D02*
Y-63701D01*
X-73750Y-75701D02*
X-73519Y-75469D01*
X-85750Y-39701D02*
Y-33951D01*
Y-51701D02*
Y-39701D01*
Y-63701D02*
Y-51701D01*
Y-75701D02*
Y-63701D01*
X-97750Y-51701D02*
Y-39701D01*
Y-63701D02*
Y-51701D01*
Y-75701D02*
Y-63701D01*
X-61750Y-75701D02*
X-61750Y-75701D01*
X-15000Y-127201D02*
Y-94451D01*
D33*
X-160000Y-113500D02*
D03*
X-145000D02*
D03*
X-175500Y-113250D02*
D03*
X-190500D02*
D03*
X-295730Y-14000D02*
D03*
X-280730D02*
D03*
X-224270Y-14000D02*
D03*
X-239270D02*
D03*
X-252520D02*
D03*
X-267520D02*
D03*
X-246250Y-68000D02*
D03*
X-261250D02*
D03*
X-283000Y-28250D02*
D03*
X-268000D02*
D03*
D34*
X-244500Y-109201D02*
D03*
Y-90201D02*
D03*
X-221000Y-99701D02*
D03*
D35*
X-194750Y-98000D02*
D03*
Y-83000D02*
D03*
X-250500Y-33250D02*
D03*
Y-48250D02*
D03*
X-276250Y-56500D02*
D03*
X-276250Y-41500D02*
D03*
X-303750D02*
D03*
Y-56500D02*
D03*
X-290000Y-56500D02*
D03*
X-290000Y-41500D02*
D03*
X-258500Y-106500D02*
D03*
X-258500Y-91500D02*
D03*
X-222250Y-47750D02*
D03*
Y-32750D02*
D03*
D46*
X-166999Y-73452D02*
X-156000Y-84451D01*
X-155750D01*
X-285250Y-56500D02*
X-276250D01*
X-297121Y-66289D02*
Y-65747D01*
X-292500Y-61127D02*
Y-58000D01*
X-297121Y-65747D02*
X-292500Y-61127D01*
X-285500Y-56750D02*
X-285250Y-56500D01*
X-290000D02*
X-285250D01*
X-291000Y-56500D02*
X-290000D01*
X-292500Y-58000D02*
X-291000Y-56500D01*
X-174750Y-40951D02*
X-166500Y-49201D01*
Y-64025D02*
Y-49201D01*
D47*
X-155500Y-188850D02*
Y-154500D01*
X-156000Y-154000D02*
X-155500Y-154500D01*
X-269752Y-189451D02*
X-263801Y-183500D01*
X-118750Y-26701D02*
X-44500D01*
X-43750Y-27451D01*
D48*
X-155500Y-188850D02*
D03*
X-241900D02*
D03*
D49*
X-155500Y-135250D02*
D03*
X-242000D02*
D03*
D50*
X-138000Y-115500D02*
D03*
X-131632Y-129382D02*
D03*
X-172500Y-164000D02*
D03*
X-286696Y-115804D02*
D03*
X-196500Y-41701D02*
D03*
X-217250Y-157750D02*
D03*
X-216250Y-68009D02*
D03*
X-223500Y-192750D02*
D03*
X-215750Y-77701D02*
D03*
X-155750Y-84451D02*
D03*
X-307750Y-85750D02*
D03*
X-231750Y-56750D02*
D03*
X-237250Y-48500D02*
D03*
X-35155Y-94545D02*
D03*
X-276500Y-84000D02*
D03*
X-297121Y-66289D02*
D03*
X-310250Y-30250D02*
D03*
X-150235Y-27446D02*
D03*
X-118750Y-26701D02*
D03*
X-125500Y-122500D02*
D03*
X-174750Y-40951D02*
D03*
X-214000Y-23201D02*
D03*
X-203500Y-36451D02*
D03*
X-266250Y-41951D02*
D03*
X-118250Y-110951D02*
D03*
X-12750Y-21951D02*
D03*
X-24750Y-13201D02*
D03*
X-6500Y-93451D02*
D03*
X-117500Y-131000D02*
D03*
X-83000Y-130750D02*
D03*
X-43750Y-27451D02*
D03*
X-9000Y-59701D02*
D03*
X-49750Y-87701D02*
D03*
X-21000Y-133201D02*
D03*
X-24000Y-96201D02*
D03*
X-119125Y-73326D02*
D03*
X-120750Y-81451D02*
D03*
X-110750Y-101951D02*
D03*
X-117250Y-95951D02*
D03*
D51*
X-263500Y-165000D02*
D03*
X-275250Y-187750D02*
D03*
D52*
X-97750Y-75701D02*
D03*
Y-63701D02*
D03*
Y-51701D02*
D03*
Y-39701D02*
D03*
X-85750Y-75701D02*
D03*
Y-63701D02*
D03*
Y-51701D02*
D03*
Y-39701D02*
D03*
X-73750Y-75701D02*
D03*
X-73750Y-63701D02*
D03*
Y-51701D02*
D03*
X-73750Y-39701D02*
D03*
X-61750Y-75701D02*
D03*
Y-63701D02*
D03*
Y-51701D02*
D03*
Y-39701D02*
D03*
D53*
X-229750Y-143250D02*
D03*
X-167750D02*
D03*
D54*
X-176250D02*
D03*
X-206250D02*
D03*
X-228750Y-131250D02*
D03*
X-168750D02*
D03*
X-173750D02*
D03*
X-178750D02*
D03*
X-183750D02*
D03*
X-188750D02*
D03*
X-193750D02*
D03*
X-203750D02*
D03*
X-208750D02*
D03*
X-213750D02*
D03*
X-218750D02*
D03*
X-223750D02*
D03*
X-221250Y-143250D02*
D03*
X-216250D02*
D03*
X-211250D02*
D03*
X-201250D02*
D03*
X-196250D02*
D03*
X-191250D02*
D03*
X-186250D02*
D03*
X-181250D02*
D03*
D55*
X-47500Y-72250D02*
D03*
Y-132250D02*
D03*
X-11500D02*
D03*
Y-72250D02*
D03*
X-276500Y-132250D02*
D03*
Y-72250D02*
D03*
X-312500D02*
D03*
Y-132250D02*
D03*
D56*
X-270002Y-160451D02*
D03*
X-269752Y-189451D02*
D03*
D57*
X-153150Y-66451D02*
D03*
X-165850D02*
D03*
X-178550D02*
D03*
X-191250D02*
D03*
X-203950D02*
D03*
Y-20701D02*
D03*
X-191250D02*
D03*
X-178550D02*
D03*
X-165850D02*
D03*
X-153150D02*
D03*
M02*
