M48
;Layer_Color=9474304
;FILE_FORMAT=4:4
METRIC,LZ
;TYPE=PLATED
T1F00S00C0.3000
T2F00S00C0.3300
T3F00S00C0.5000
T6F00S00C1.6000
%
T01
X-002235Y-0019275
X-0021725Y-0015775
X-001725Y-00164
X-00131632Y-00129382
X-001255Y-001225
X-001175Y-00131
X-0011825Y-00110951
X-0011725Y-00095951
X-0011075Y-00101951
X-0012075Y-00081451
X-00119125Y-00073326
X-0011875Y-00026701
X-00150235Y-00027446
X-0017475Y-00040951
X-001965Y-00041701
X-002035Y-00036451
X-00214Y-00023201
X-0021625Y-00068009
X-0021575Y-00077701
X-0023175Y-0005675
X-0023725Y-000485
X-0026625Y-00041951
X-002765Y-00084
X-0030775Y-0008575
X-00297121Y-00066289
X-0031025Y-0003025
X-00286696Y-00115804
X-00138Y-001155
X-0015575Y-00084451
X-0004975Y-00087701
X-00035155Y-00094545
X-00024Y-00096201
X-00021Y-00133201
X-00083Y-0013075
X-0004375Y-00027451
X-0002475Y-00013201
X-0001275Y-00021951
X-00009Y-00059701
X-000065Y-00093451
T02
X-0009775Y-00075701
Y-00063701
Y-00051701
Y-00039701
X-0008575
Y-00051701
Y-00063701
Y-00075701
X-0007375
X-0006175
Y-00063701
X-0007375
Y-00051701
X-0007375Y-00039701
X-0006175
Y-00051701
T03
X-0027525Y-0018775
X-002635Y-00165
T06
X-0029675Y-0019275
X-0030925Y-001785
M30
