G04*
G04 #@! TF.GenerationSoftware,Altium Limited,Altium Designer,22.1.2 (22)*
G04*
G04 Layer_Color=65535*
%FSLAX44Y44*%
%MOMM*%
G71*
G04*
G04 #@! TF.SameCoordinates,13D72DB6-CE64-42D8-9DE0-DE94B983F977*
G04*
G04*
G04 #@! TF.FilePolarity,Positive*
G04*
G01*
G75*
%ADD10C,0.2500*%
%ADD11C,0.1778*%
%ADD12C,0.2000*%
%ADD13C,0.3000*%
%ADD14C,0.1500*%
%ADD15C,0.0800*%
%ADD16C,0.1000*%
D10*
X-282500Y-36701D02*
G03*
X-282500Y-36701I-1250J0D01*
G01*
X-282500Y-77201D02*
G03*
X-282500Y-77201I-1250J0D01*
G01*
X-241500Y-36951D02*
G03*
X-241500Y-36951I-1250J0D01*
G01*
X-316000Y-162951D02*
G03*
X-316000Y-162951I-1250J0D01*
G01*
X-212250Y-164951D02*
G03*
X-212250Y-164951I-1250J0D01*
G01*
X-56500Y-18701D02*
G03*
X-56500Y-18701I-1250J0D01*
G01*
D11*
X-247942Y-190250D02*
X-247750Y-129600D01*
X-149750D02*
X-149550Y-190250D01*
X-149750D02*
Y-129600D01*
X-247750D02*
X-149750D01*
X-247750Y-190250D02*
Y-129600D01*
X-149750D01*
D12*
X-303750Y-128701D02*
X-299750Y-128701D01*
X-303750Y-121701D02*
X-299750D01*
X-302500Y-33701D02*
X-294500D01*
X-302500D02*
Y-25701D01*
Y-3701D02*
X-294500D01*
X-302500Y-11701D02*
Y-3701D01*
X-143000Y-87750D02*
X-139000D01*
X-143000Y-80750D02*
X-139000D01*
X-277750Y-146201D02*
X-277750Y-142201D01*
X-270750Y-146201D02*
Y-142201D01*
X-34500Y-77701D02*
Y-73701D01*
X-27500Y-77701D02*
Y-73701D01*
X-18000Y-73701D02*
Y-69701D01*
X-11000Y-73701D02*
Y-69701D01*
X-302500Y-74201D02*
X-294500D01*
X-302500D02*
Y-66201D01*
Y-44201D02*
X-294500D01*
X-302500Y-52201D02*
Y-44201D01*
X-263000Y-61201D02*
Y-57201D01*
X-270000Y-61201D02*
Y-57201D01*
X-228000Y-20951D02*
Y-16951D01*
X-221000Y-20951D02*
Y-16951D01*
X-261500Y-33951D02*
X-253500D01*
X-261500D02*
Y-25951D01*
Y-3951D02*
X-253500D01*
X-261500Y-11951D02*
Y-3951D01*
X-314250Y-147701D02*
X-284250Y-147701D01*
X-314250Y-153701D02*
X-284250D01*
Y-147701D01*
X-314250Y-153701D02*
Y-147701D01*
X-271250Y-174250D02*
Y-170250D01*
X-278250Y-174250D02*
Y-170250D01*
X-200750Y-162451D02*
X-196750Y-162451D01*
X-200750Y-155451D02*
X-196750D01*
X-210250Y-74201D02*
X-206250D01*
X-210250Y-81201D02*
X-206250D01*
X-204500Y-137451D02*
X-200500Y-137451D01*
X-204500Y-144451D02*
X-200500D01*
X-249750Y-113951D02*
Y-109951D01*
X-256750Y-113951D02*
Y-109951D01*
X-243500Y-104201D02*
Y-100201D01*
X-236500Y-104201D02*
Y-100201D01*
X-198250Y-197951D02*
Y-167951D01*
X-204250Y-197951D02*
Y-167951D01*
Y-197951D02*
X-198250D01*
X-204250Y-167951D02*
X-198250Y-167951D01*
X-52000Y-16201D02*
X-48000D01*
X-52000Y-9201D02*
X-48000D01*
X-134250Y-37201D02*
X-130250D01*
X-134250Y-30201D02*
X-130250D01*
X-15250Y-46951D02*
Y-42951D01*
X-22250Y-46951D02*
Y-42951D01*
X-28750Y-51201D02*
Y-47201D01*
X-35750Y-51201D02*
Y-47201D01*
X-16750Y-117951D02*
Y-113951D01*
X-9750Y-117951D02*
Y-113951D01*
X-109750Y-27701D02*
X-104750D01*
X-109750Y-32701D02*
Y-27701D01*
Y-87701D02*
Y-82701D01*
Y-87701D02*
X-104750D01*
X-54750D02*
X-49750D01*
Y-82701D01*
X-54750Y-27701D02*
X-49750Y-32701D01*
X-44750Y-143701D02*
X-40750D01*
X-44750Y-136701D02*
X-40750D01*
X-61500Y-120201D02*
X-51500Y-130201D01*
X-23500D01*
X-61500Y-100701D02*
X-23500D01*
Y-130201D02*
Y-100701D01*
X-61500Y-120201D02*
Y-100701D01*
X-69750Y-127201D02*
Y-123201D01*
X-76750Y-127201D02*
Y-123201D01*
X-99000Y-127980D02*
X-95000D01*
X-99000Y-120980D02*
X-95000D01*
X-99000Y-116201D02*
X-95000D01*
X-99000Y-109201D02*
X-95000D01*
X-85750Y-103250D02*
X-81750D01*
X-85750Y-96250D02*
X-81750D01*
D13*
X-103500Y-151201D02*
Y-133201D01*
X-128500Y-151201D02*
X-103500D01*
X-128500Y-151201D02*
X-128500Y-151201D01*
X-128500Y-163201D02*
Y-151201D01*
Y-163201D02*
X-39500D01*
Y-175201D02*
Y-163201D01*
X-128500Y-175201D02*
X-39500D01*
X-128500Y-187201D02*
Y-175201D01*
Y-187201D02*
X-39500D01*
Y-199201D02*
Y-187201D01*
X-101500Y-199201D02*
X-39500D01*
D14*
X-230875Y-131951D02*
Y-89951D01*
Y-131951D02*
X-168000Y-131951D01*
Y-86826D01*
X-227750D02*
X-168000D01*
X-230875Y-89951D02*
X-227750Y-86826D01*
D15*
X-310508Y-11377D02*
Y-7885D01*
X-311381Y-7012D01*
X-313127D01*
X-314000Y-7885D01*
Y-11377D01*
X-313127Y-12250D01*
X-311381D01*
X-312254Y-10504D02*
X-310508Y-12250D01*
X-311381D02*
X-310508Y-11377D01*
X-305270Y-7012D02*
X-308762D01*
Y-9631D01*
X-307016Y-8758D01*
X-306143D01*
X-305270Y-9631D01*
Y-11377D01*
X-306143Y-12250D01*
X-307889D01*
X-308762Y-11377D01*
X-88586Y-14298D02*
Y-18664D01*
X-87713Y-19537D01*
X-85967D01*
X-85094Y-18664D01*
Y-14298D01*
X-83348Y-19537D02*
X-81601D01*
X-82474D01*
Y-14298D01*
X-83348Y-15172D01*
X-36250Y-92463D02*
Y-93336D01*
X-34504Y-95082D01*
X-32758Y-93336D01*
Y-92463D01*
X-34504Y-95082D02*
Y-97701D01*
X-31012D02*
X-29266D01*
X-30139D01*
Y-92463D01*
X-31012Y-93336D01*
X-184000Y-79213D02*
Y-83578D01*
X-183127Y-84451D01*
X-181381D01*
X-180508Y-83578D01*
Y-79213D01*
X-176143Y-84451D02*
Y-79213D01*
X-178762Y-81832D01*
X-175270D01*
X-322238Y-153750D02*
X-317873D01*
X-317000Y-152877D01*
Y-151131D01*
X-317873Y-150258D01*
X-322238D01*
X-321365Y-148512D02*
X-322238Y-147639D01*
Y-145893D01*
X-321365Y-145020D01*
X-320492D01*
X-319619Y-145893D01*
Y-146766D01*
Y-145893D01*
X-318746Y-145020D01*
X-317873D01*
X-317000Y-145893D01*
Y-147639D01*
X-317873Y-148512D01*
X-185000Y-179963D02*
Y-184328D01*
X-184127Y-185201D01*
X-182381D01*
X-181508Y-184328D01*
Y-179963D01*
X-176269Y-185201D02*
X-179762D01*
X-176269Y-181709D01*
Y-180836D01*
X-177143Y-179963D01*
X-178889D01*
X-179762Y-180836D01*
X-245750Y-86951D02*
Y-81713D01*
X-243131D01*
X-242258Y-82586D01*
Y-84332D01*
X-243131Y-85205D01*
X-245750D01*
X-244004D02*
X-242258Y-86951D01*
X-240512D02*
X-238766D01*
X-239639D01*
Y-81713D01*
X-240512Y-82586D01*
X-233527Y-86951D02*
Y-81713D01*
X-236146Y-84332D01*
X-232654D01*
X-258750Y-52201D02*
X-253512D01*
Y-54820D01*
X-254385Y-55693D01*
X-256131D01*
X-257004Y-54820D01*
Y-52201D01*
Y-53947D02*
X-258750Y-55693D01*
Y-57439D02*
Y-59185D01*
Y-58312D01*
X-253512D01*
X-254385Y-57439D01*
Y-61804D02*
X-253512Y-62678D01*
Y-64424D01*
X-254385Y-65297D01*
X-255258D01*
X-256131Y-64424D01*
Y-63551D01*
Y-64424D01*
X-257004Y-65297D01*
X-257877D01*
X-258750Y-64424D01*
Y-62678D01*
X-257877Y-61804D01*
X-217250Y-12250D02*
X-212012D01*
Y-14869D01*
X-212885Y-15742D01*
X-214631D01*
X-215504Y-14869D01*
Y-12250D01*
Y-13996D02*
X-217250Y-15742D01*
Y-17488D02*
Y-19234D01*
Y-18361D01*
X-212012D01*
X-212885Y-17488D01*
X-217250Y-25346D02*
Y-21853D01*
X-213758Y-25346D01*
X-212885D01*
X-212012Y-24473D01*
Y-22727D01*
X-212885Y-21853D01*
X-7750Y-64451D02*
X-2512D01*
Y-67070D01*
X-3385Y-67943D01*
X-5131D01*
X-6004Y-67070D01*
Y-64451D01*
Y-66197D02*
X-7750Y-67943D01*
Y-69689D02*
Y-71435D01*
Y-70562D01*
X-2512D01*
X-3385Y-69689D01*
Y-74054D02*
X-2512Y-74928D01*
Y-76674D01*
X-3385Y-77547D01*
X-6877D01*
X-7750Y-76674D01*
Y-74928D01*
X-6877Y-74054D01*
X-3385D01*
X-39500Y-80451D02*
X-44738D01*
Y-77832D01*
X-43865Y-76959D01*
X-42119D01*
X-41246Y-77832D01*
Y-80451D01*
Y-78705D02*
X-39500Y-76959D01*
X-40373Y-75213D02*
X-39500Y-74340D01*
Y-72594D01*
X-40373Y-71720D01*
X-43865D01*
X-44738Y-72594D01*
Y-74340D01*
X-43865Y-75213D01*
X-42992D01*
X-42119Y-74340D01*
Y-71720D01*
X-307750Y-117000D02*
Y-111762D01*
X-305131D01*
X-304258Y-112635D01*
Y-114381D01*
X-305131Y-115254D01*
X-307750D01*
X-306004D02*
X-304258Y-117000D01*
X-299020Y-111762D02*
X-302512D01*
Y-114381D01*
X-300766Y-113508D01*
X-299893D01*
X-299020Y-114381D01*
Y-116127D01*
X-299893Y-117000D01*
X-301639D01*
X-302512Y-116127D01*
X-314008Y-50578D02*
Y-47086D01*
X-314881Y-46213D01*
X-316627D01*
X-317500Y-47086D01*
Y-50578D01*
X-316627Y-51451D01*
X-314881D01*
X-315754Y-49705D02*
X-314008Y-51451D01*
X-314881D02*
X-314008Y-50578D01*
X-309643Y-51451D02*
Y-46213D01*
X-312262Y-48832D01*
X-308769D01*
X-270008Y-9127D02*
Y-5635D01*
X-270881Y-4762D01*
X-272627D01*
X-273500Y-5635D01*
Y-9127D01*
X-272627Y-10000D01*
X-270881D01*
X-271754Y-8254D02*
X-270008Y-10000D01*
X-270881D02*
X-270008Y-9127D01*
X-268262Y-5635D02*
X-267389Y-4762D01*
X-265643D01*
X-264769Y-5635D01*
Y-6508D01*
X-265643Y-7381D01*
X-266516D01*
X-265643D01*
X-264769Y-8254D01*
Y-9127D01*
X-265643Y-10000D01*
X-267389D01*
X-268262Y-9127D01*
X-118451Y-110423D02*
Y-115661D01*
X-114959D01*
X-113213D02*
X-111467D01*
X-112340D01*
Y-110423D01*
X-113213Y-111296D01*
X-226258Y-138836D02*
X-227131Y-137963D01*
X-228877D01*
X-229750Y-138836D01*
Y-142328D01*
X-228877Y-143201D01*
X-227131D01*
X-226258Y-142328D01*
X-224512Y-143201D02*
X-222766D01*
X-223639D01*
Y-137963D01*
X-224512Y-138836D01*
X-220147Y-137963D02*
X-216654D01*
Y-138836D01*
X-220147Y-142328D01*
Y-143201D01*
X-213008Y-66086D02*
X-213881Y-65213D01*
X-215627D01*
X-216500Y-66086D01*
Y-69578D01*
X-215627Y-70451D01*
X-213881D01*
X-213008Y-69578D01*
X-211262Y-70451D02*
X-209516D01*
X-210389D01*
Y-65213D01*
X-211262Y-66086D01*
X-203404Y-65213D02*
X-205150Y-66086D01*
X-206896Y-67832D01*
Y-69578D01*
X-206023Y-70451D01*
X-204277D01*
X-203404Y-69578D01*
Y-68705D01*
X-204277Y-67832D01*
X-206896D01*
X-258008Y-91586D02*
X-258881Y-90713D01*
X-260627D01*
X-261500Y-91586D01*
Y-95078D01*
X-260627Y-95951D01*
X-258881D01*
X-258008Y-95078D01*
X-256262Y-95951D02*
X-254516D01*
X-255389D01*
Y-90713D01*
X-256262Y-91586D01*
X-248404Y-90713D02*
X-251896D01*
Y-93332D01*
X-250150Y-92459D01*
X-249277D01*
X-248404Y-93332D01*
Y-95078D01*
X-249277Y-95951D01*
X-251023D01*
X-251896Y-95078D01*
X-141758Y-20586D02*
X-142631Y-19713D01*
X-144377D01*
X-145250Y-20586D01*
Y-24078D01*
X-144377Y-24951D01*
X-142631D01*
X-141758Y-24078D01*
X-140012Y-24951D02*
X-138266D01*
X-139139D01*
Y-19713D01*
X-140012Y-20586D01*
X-133027Y-24951D02*
Y-19713D01*
X-135646Y-22332D01*
X-132154D01*
X-22508Y-25836D02*
X-23381Y-24963D01*
X-25127D01*
X-26000Y-25836D01*
Y-29328D01*
X-25127Y-30201D01*
X-23381D01*
X-22508Y-29328D01*
X-20762Y-30201D02*
X-19016D01*
X-19889D01*
Y-24963D01*
X-20762Y-25836D01*
X-16396D02*
X-15523Y-24963D01*
X-13777D01*
X-12904Y-25836D01*
Y-26709D01*
X-13777Y-27582D01*
X-14650D01*
X-13777D01*
X-12904Y-28455D01*
Y-29328D01*
X-13777Y-30201D01*
X-15523D01*
X-16396Y-29328D01*
X-121008Y-122615D02*
X-121881Y-121742D01*
X-123627D01*
X-124500Y-122615D01*
Y-126107D01*
X-123627Y-126980D01*
X-121881D01*
X-121008Y-126107D01*
X-119262Y-126980D02*
X-117516D01*
X-118389D01*
Y-121742D01*
X-119262Y-122615D01*
X-111404Y-126980D02*
X-114896D01*
X-111404Y-123488D01*
Y-122615D01*
X-112277Y-121742D01*
X-114023D01*
X-114896Y-122615D01*
X-105758Y-97635D02*
X-106631Y-96762D01*
X-108377D01*
X-109250Y-97635D01*
Y-101127D01*
X-108377Y-102000D01*
X-106631D01*
X-105758Y-101127D01*
X-104012Y-102000D02*
X-102266D01*
X-103139D01*
Y-96762D01*
X-104012Y-97635D01*
X-99647Y-102000D02*
X-97900D01*
X-98773D01*
Y-96762D01*
X-99647Y-97635D01*
X-262885Y-170492D02*
X-262012Y-169619D01*
Y-167873D01*
X-262885Y-167000D01*
X-266377D01*
X-267250Y-167873D01*
Y-169619D01*
X-266377Y-170492D01*
Y-172238D02*
X-267250Y-173111D01*
Y-174857D01*
X-266377Y-175730D01*
X-262885D01*
X-262012Y-174857D01*
Y-173111D01*
X-262885Y-172238D01*
X-263758D01*
X-264631Y-173111D01*
Y-175730D01*
X-201008Y-147086D02*
X-201881Y-146213D01*
X-203627D01*
X-204500Y-147086D01*
Y-150578D01*
X-203627Y-151451D01*
X-201881D01*
X-201008Y-150578D01*
X-199262Y-147086D02*
X-198389Y-146213D01*
X-196643D01*
X-195770Y-147086D01*
Y-147959D01*
X-196643Y-148832D01*
X-195770Y-149705D01*
Y-150578D01*
X-196643Y-151451D01*
X-198389D01*
X-199262Y-150578D01*
Y-149705D01*
X-198389Y-148832D01*
X-199262Y-147959D01*
Y-147086D01*
X-198389Y-148832D02*
X-196643D01*
X-62135Y-134193D02*
X-61262Y-133320D01*
Y-131574D01*
X-62135Y-130701D01*
X-65627D01*
X-66500Y-131574D01*
Y-133320D01*
X-65627Y-134193D01*
X-61262Y-135939D02*
Y-139431D01*
X-62135D01*
X-65627Y-135939D01*
X-66500D01*
X-24508Y-138885D02*
X-25381Y-138012D01*
X-27127D01*
X-28000Y-138885D01*
Y-142377D01*
X-27127Y-143250D01*
X-25381D01*
X-24508Y-142377D01*
X-19269Y-138012D02*
X-21016Y-138885D01*
X-22762Y-140631D01*
Y-142377D01*
X-21889Y-143250D01*
X-20143D01*
X-19269Y-142377D01*
Y-141504D01*
X-20143Y-140631D01*
X-22762D01*
X-70008Y-9385D02*
X-70881Y-8512D01*
X-72627D01*
X-73500Y-9385D01*
Y-12877D01*
X-72627Y-13750D01*
X-70881D01*
X-70008Y-12877D01*
X-64770Y-8512D02*
X-68262D01*
Y-11131D01*
X-66516Y-10258D01*
X-65643D01*
X-64770Y-11131D01*
Y-12877D01*
X-65643Y-13750D01*
X-67389D01*
X-68262Y-12877D01*
X-15508Y-97336D02*
X-16381Y-96463D01*
X-18127D01*
X-19000Y-97336D01*
Y-100828D01*
X-18127Y-101701D01*
X-16381D01*
X-15508Y-100828D01*
X-11142Y-101701D02*
Y-96463D01*
X-13762Y-99082D01*
X-10270D01*
X-275008Y-125135D02*
X-275881Y-124262D01*
X-277627D01*
X-278500Y-125135D01*
Y-128627D01*
X-277627Y-129500D01*
X-275881D01*
X-275008Y-128627D01*
X-269769Y-129500D02*
X-273262D01*
X-269769Y-126008D01*
Y-125135D01*
X-270643Y-124262D01*
X-272389D01*
X-273262Y-125135D01*
X-31508Y-29336D02*
X-32381Y-28463D01*
X-34127D01*
X-35000Y-29336D01*
Y-32828D01*
X-34127Y-33701D01*
X-32381D01*
X-31508Y-32828D01*
X-29762Y-33701D02*
X-28016D01*
X-28889D01*
Y-28463D01*
X-29762Y-29336D01*
D16*
X-142978Y-75520D02*
Y-70281D01*
X-140359D01*
X-139486Y-71154D01*
Y-72900D01*
X-140359Y-73773D01*
X-142978D01*
X-141232D02*
X-139486Y-75520D01*
X-137740D02*
X-135994D01*
X-136867D01*
Y-70281D01*
X-137740Y-71154D01*
X-129882Y-70281D02*
X-133375D01*
Y-72900D01*
X-131629Y-72027D01*
X-130756D01*
X-129882Y-72900D01*
Y-74647D01*
X-130756Y-75520D01*
X-132502D01*
X-133375Y-74647D01*
M02*
