G04*
G04 #@! TF.GenerationSoftware,Altium Limited,Altium Designer,22.1.2 (22)*
G04*
G04 Layer_Color=32896*
%FSLAX44Y44*%
%MOMM*%
G71*
G04*
G04 #@! TF.SameCoordinates,13D72DB6-CE64-42D8-9DE0-DE94B983F977*
G04*
G04*
G04 #@! TF.FilePolarity,Positive*
G04*
G01*
G75*
%ADD10C,0.2500*%
%ADD11C,0.1778*%
%ADD12C,0.2000*%
%ADD13C,0.3000*%
%ADD15C,0.0800*%
%ADD16C,0.1000*%
%ADD63C,0.2540*%
D10*
X-160750Y-124210D02*
G03*
X-160750Y-124210I-1000J0D01*
G01*
X-243250Y-117701D02*
G03*
X-243250Y-117701I-1250J0D01*
G01*
D11*
X-166750Y-129600D02*
X-161750D01*
X-235750D02*
X-230750D01*
X-249250Y-192590D02*
Y-156550D01*
X-148250Y-192590D02*
Y-156550D01*
D12*
X-154500Y-117000D02*
X-150500D01*
X-154500Y-110000D02*
X-150500D01*
X-191250Y-92500D02*
Y-88500D01*
X-198250Y-92500D02*
Y-88500D01*
X-185000Y-109750D02*
X-181000D01*
X-185000Y-116750D02*
X-181000D01*
X-254000Y-42750D02*
Y-38750D01*
X-247000Y-42750D02*
Y-38750D01*
X-290750Y-9000D02*
X-285750Y-14000D01*
X-290750Y-19000D02*
X-285750Y-14000D01*
X-234250D02*
X-229250Y-19000D01*
X-234250Y-14000D02*
X-229250Y-9000D01*
X-262500Y-14000D02*
X-257500Y-19000D01*
X-262500Y-14000D02*
X-257500Y-9000D01*
X-272750Y-51000D02*
X-272750Y-47000D01*
X-279750Y-51000D02*
Y-47000D01*
X-255750Y-64500D02*
X-251750Y-64500D01*
X-255750Y-71500D02*
X-251750D01*
X-307250Y-51000D02*
Y-47000D01*
X-300250Y-51000D02*
Y-47000D01*
X-286500Y-47000D02*
X-286500Y-51000D01*
X-293500Y-51000D02*
Y-47000D01*
X-277500Y-31750D02*
X-273500D01*
X-277500Y-24750D02*
X-273500D01*
X-255000Y-101000D02*
X-255000Y-97000D01*
X-262000Y-97000D02*
X-262000Y-101000D01*
X-233750Y-114701D02*
X-225750Y-114701D01*
Y-106701D01*
X-233750Y-84701D02*
X-225750Y-84701D01*
Y-92701D02*
Y-84701D01*
X-207150Y-75451D02*
Y-11701D01*
X-149900D01*
X-207150Y-75451D02*
X-160400D01*
X-149900Y-64951D01*
Y-11701D01*
X-218750Y-42250D02*
Y-38250D01*
X-225750Y-42250D02*
Y-38250D01*
D13*
X-243000Y-192453D02*
X-233670D01*
X-238335Y-187788D02*
Y-197118D01*
X-241750Y-162703D02*
X-232420D01*
D15*
X-145766Y-104869D02*
Y-99631D01*
X-148385D01*
X-149258Y-100504D01*
Y-102250D01*
X-148385Y-103123D01*
X-145766D01*
X-147512D02*
X-149258Y-104869D01*
X-154496D02*
X-151004D01*
X-154496Y-101377D01*
Y-100504D01*
X-153623Y-99631D01*
X-151877D01*
X-151004Y-100504D01*
X-156242D02*
X-157115Y-99631D01*
X-158861D01*
X-159734Y-100504D01*
Y-103996D01*
X-158861Y-104869D01*
X-157115D01*
X-156242Y-103996D01*
Y-100504D01*
X-170952Y-106619D02*
Y-101381D01*
X-173571D01*
X-174444Y-102254D01*
Y-104000D01*
X-173571Y-104873D01*
X-170952D01*
X-172698D02*
X-174444Y-106619D01*
X-176190D02*
X-177936D01*
X-177064D01*
Y-101381D01*
X-176190Y-102254D01*
X-180556Y-105746D02*
X-181429Y-106619D01*
X-183175D01*
X-184048Y-105746D01*
Y-102254D01*
X-183175Y-101381D01*
X-181429D01*
X-180556Y-102254D01*
Y-103127D01*
X-181429Y-104000D01*
X-184048D01*
X-181750Y-46701D02*
Y-41463D01*
X-184369D01*
X-185242Y-42336D01*
Y-44082D01*
X-184369Y-44955D01*
X-181750D01*
X-186988Y-46701D02*
X-188734D01*
X-187861D01*
Y-41463D01*
X-186988Y-42336D01*
X-246250Y-61500D02*
Y-56262D01*
X-248869D01*
X-249742Y-57135D01*
Y-58881D01*
X-248869Y-59754D01*
X-246250D01*
X-247996D02*
X-249742Y-61500D01*
X-251488D02*
X-253234D01*
X-252361D01*
Y-56262D01*
X-251488Y-57135D01*
X-255854Y-56262D02*
X-259346D01*
Y-57135D01*
X-255854Y-60627D01*
Y-61500D01*
X-253000Y-84000D02*
Y-78762D01*
X-255619D01*
X-256492Y-79635D01*
Y-81381D01*
X-255619Y-82254D01*
X-253000D01*
X-254746D02*
X-256492Y-84000D01*
X-258238D02*
X-259984D01*
X-259111D01*
Y-78762D01*
X-258238Y-79635D01*
X-262603Y-84000D02*
X-264350D01*
X-263477D01*
Y-78762D01*
X-262603Y-79635D01*
X-246000Y-27250D02*
Y-22012D01*
X-248619D01*
X-249492Y-22885D01*
Y-24631D01*
X-248619Y-25504D01*
X-246000D01*
X-247746D02*
X-249492Y-27250D01*
X-251238Y-22012D02*
X-254730D01*
Y-22885D01*
X-251238Y-26377D01*
Y-27250D01*
X-217250Y-26451D02*
Y-21213D01*
X-219869D01*
X-220742Y-22086D01*
Y-23832D01*
X-219869Y-24705D01*
X-217250D01*
X-218996D02*
X-220742Y-26451D01*
X-225980Y-21213D02*
X-224234Y-22086D01*
X-222488Y-23832D01*
Y-25578D01*
X-223361Y-26451D01*
X-225107D01*
X-225980Y-25578D01*
Y-24705D01*
X-225107Y-23832D01*
X-222488D01*
X-291250Y-31000D02*
Y-25762D01*
X-293869D01*
X-294742Y-26635D01*
Y-28381D01*
X-293869Y-29254D01*
X-291250D01*
X-292996D02*
X-294742Y-31000D01*
X-299107D02*
Y-25762D01*
X-296488Y-28381D01*
X-299981D01*
X-286250Y-67000D02*
Y-61762D01*
X-288869D01*
X-289742Y-62635D01*
Y-64381D01*
X-288869Y-65254D01*
X-286250D01*
X-287996D02*
X-289742Y-67000D01*
X-294981D02*
X-291488D01*
X-294981Y-63508D01*
Y-62635D01*
X-294107Y-61762D01*
X-292361D01*
X-291488Y-62635D01*
X-311000Y-45000D02*
X-316238D01*
Y-47619D01*
X-315365Y-48492D01*
X-313619D01*
X-312746Y-47619D01*
Y-45000D01*
Y-46746D02*
X-311000Y-48492D01*
Y-50238D02*
Y-51984D01*
Y-51111D01*
X-316238D01*
X-315365Y-50238D01*
X-214992Y-91578D02*
Y-88086D01*
X-214119Y-87213D01*
X-212373D01*
X-211500Y-88086D01*
Y-91578D01*
X-212373Y-92451D01*
X-214119D01*
X-213246Y-90705D02*
X-214992Y-92451D01*
X-214119D02*
X-214992Y-91578D01*
X-220230Y-92451D02*
X-216738D01*
X-220230Y-88959D01*
Y-88086D01*
X-219357Y-87213D01*
X-217611D01*
X-216738Y-88086D01*
X-265135Y-54758D02*
X-264262Y-55631D01*
Y-57377D01*
X-265135Y-58250D01*
X-268627D01*
X-269500Y-57377D01*
Y-55631D01*
X-268627Y-54758D01*
X-269500Y-53012D02*
Y-51266D01*
Y-52139D01*
X-264262D01*
X-265135Y-53012D01*
Y-48646D02*
X-264262Y-47773D01*
Y-46027D01*
X-265135Y-45154D01*
X-268627D01*
X-269500Y-46027D01*
Y-47773D01*
X-268627Y-48646D01*
X-265135D01*
X-167500Y-187500D02*
Y-182262D01*
X-170119D01*
X-170992Y-183135D01*
Y-184881D01*
X-170119Y-185754D01*
X-167500D01*
X-176231Y-187500D02*
X-172738D01*
X-176231Y-184008D01*
Y-183135D01*
X-175357Y-182262D01*
X-173611D01*
X-172738Y-183135D01*
D16*
X-186869Y-93048D02*
X-181631D01*
Y-90429D01*
X-182504Y-89556D01*
X-184250D01*
X-185123Y-90429D01*
Y-93048D01*
Y-91302D02*
X-186869Y-89556D01*
Y-87810D02*
Y-86063D01*
Y-86937D01*
X-181631D01*
X-182504Y-87810D01*
Y-83444D02*
X-181631Y-82571D01*
Y-80825D01*
X-182504Y-79952D01*
X-183377D01*
X-184250Y-80825D01*
X-185123Y-79952D01*
X-185996D01*
X-186869Y-80825D01*
Y-82571D01*
X-185996Y-83444D01*
X-185123D01*
X-184250Y-82571D01*
X-183377Y-83444D01*
X-182504D01*
X-184250Y-82571D02*
Y-80825D01*
X-23885Y-62381D02*
Y-67619D01*
X-26504D01*
X-27377Y-66746D01*
Y-65873D01*
X-26504Y-65000D01*
X-23885D01*
X-26504D01*
X-27377Y-64127D01*
Y-63254D01*
X-26504Y-62381D01*
X-23885D01*
X-32615Y-67619D02*
X-29123D01*
X-32615Y-64127D01*
Y-63254D01*
X-31742Y-62381D01*
X-29996D01*
X-29123Y-63254D01*
X-277885Y-2381D02*
Y-7619D01*
X-280504D01*
X-281377Y-6746D01*
Y-3254D01*
X-280504Y-2381D01*
X-277885D01*
X-283123Y-3254D02*
X-283996Y-2381D01*
X-285742D01*
X-286615Y-3254D01*
Y-4127D01*
X-285742Y-5000D01*
X-284869D01*
X-285742D01*
X-286615Y-5873D01*
Y-6746D01*
X-285742Y-7619D01*
X-283996D01*
X-283123Y-6746D01*
X-261385Y-2381D02*
Y-7619D01*
X-264004D01*
X-264877Y-6746D01*
Y-3254D01*
X-264004Y-2381D01*
X-261385D01*
X-270115Y-7619D02*
X-266623D01*
X-270115Y-4127D01*
Y-3254D01*
X-269242Y-2381D01*
X-267496D01*
X-266623Y-3254D01*
X-234508Y-2881D02*
Y-8119D01*
X-237127D01*
X-238000Y-7246D01*
Y-3754D01*
X-237127Y-2881D01*
X-234508D01*
X-239746Y-8119D02*
X-241492D01*
X-240619D01*
Y-2881D01*
X-239746Y-3754D01*
X-306250Y-98762D02*
Y-104000D01*
X-308869D01*
X-309742Y-103127D01*
Y-102254D01*
X-308869Y-101381D01*
X-306250D01*
X-308869D01*
X-309742Y-100508D01*
Y-99635D01*
X-308869Y-98762D01*
X-306250D01*
X-314981Y-104000D02*
X-311488D01*
X-314981Y-100508D01*
Y-99635D01*
X-314107Y-98762D01*
X-312361D01*
X-311488Y-99635D01*
D63*
X-55500Y-130750D02*
Y-73250D01*
Y-130750D02*
X-4000D01*
Y-73250D01*
X-55500D02*
X-4000D01*
X-268500Y-131250D02*
Y-73750D01*
X-320000D02*
X-268500D01*
X-320000Y-131250D02*
Y-73750D01*
Y-131250D02*
X-268500D01*
X-37143Y-154886D02*
X-34604Y-152347D01*
X-29525D01*
X-26986Y-154886D01*
Y-157425D01*
X-29525Y-159964D01*
X-34604D01*
X-37143Y-162504D01*
Y-165043D01*
X-34604Y-167582D01*
X-29525D01*
X-26986Y-165043D01*
X-52378Y-154886D02*
X-49839Y-152347D01*
X-44760D01*
X-42221Y-154886D01*
Y-165043D01*
X-44760Y-167582D01*
X-49839D01*
X-52378Y-165043D01*
X-57456Y-152347D02*
X-62534D01*
X-59995D01*
Y-167582D01*
X-57456D01*
X-62534D01*
X-80309Y-152347D02*
X-70152D01*
Y-167582D01*
X-80309D01*
X-70152Y-159964D02*
X-75230D01*
X-85387Y-167582D02*
Y-152347D01*
X-95544Y-167582D01*
Y-152347D01*
X-110779Y-154886D02*
X-108240Y-152347D01*
X-103161D01*
X-100622Y-154886D01*
Y-165043D01*
X-103161Y-167582D01*
X-108240D01*
X-110779Y-165043D01*
X-126014Y-152347D02*
X-115857D01*
Y-167582D01*
X-126014D01*
X-115857Y-159964D02*
X-120936D01*
X-48569Y-191960D02*
Y-176725D01*
X-56187D01*
X-58726Y-179264D01*
Y-184342D01*
X-56187Y-186882D01*
X-48569D01*
X-53647D02*
X-58726Y-191960D01*
X-71422Y-176725D02*
X-66343D01*
X-63804Y-179264D01*
Y-189421D01*
X-66343Y-191960D01*
X-71422D01*
X-73961Y-189421D01*
Y-179264D01*
X-71422Y-176725D01*
X-89196Y-179264D02*
X-86657Y-176725D01*
X-81578D01*
X-79039Y-179264D01*
Y-189421D01*
X-81578Y-191960D01*
X-86657D01*
X-89196Y-189421D01*
X-94274Y-176725D02*
Y-191960D01*
Y-186882D01*
X-104431Y-176725D01*
X-96813Y-184342D01*
X-104431Y-191960D01*
M02*
